
<svg width="414px" height="740px" viewBox="0 0 414 740" version="1.1" xmlns="http://www.w3.org/2000/svg" xmlns:xlink="http://www.w3.org/1999/xlink">
    <g id="Page-1" stroke="none" stroke-width="1" fill="none" fill-rule="evenodd">
        <g id="background" fill="#FFFFFF">
            <g id="back" transform="translate(-501.000000, -143.000000)">
                <rect id="Rectangle" x="501" y="143" width="414" height="740"></rect>
                <path d="M488,92 L915,92 C929,487.333333 910.333333,714 859,772 C807.666667,830 683.666667,859 487,859 L488,92 Z" id="Rectangle" stroke="#7FD488" stroke-width="3"></path>
                <path d="M421.692773,243.738019 C546.788794,109.172524 831.034546,109.545116 956.130567,244.110611 C1081.22659,378.676106 1134.21486,587.195117 958.130733,686.885433 C895.664411,722.250844 842.136455,782 728.696983,782 C679.896788,782 580.111315,782 429.340565,782 C340.844689,512.869009 338.295426,333.448349 421.692773,243.738019 Z" id="Rectangle-Copy-5" stroke="#90F2C3" stroke-width="3"></path>
                <path d="M554.017012,70.7224462 C1110.25775,64.1693709 991.079011,639.180855 775.85762,754.426635 C718.972481,784.887233 556.202633,804.666878 440.36468,804.666878 C395.100515,804.666878 300.807051,762.055355 157.48429,676.832309 L156.538571,107.081718 C381.450745,83.314309 513.943558,71.1945517 554.017012,70.7224462 Z" id="Rectangle-Copy-4" stroke="#B1C4FF" stroke-width="3"></path>
                <path d="M686.650699,695.840138 C653.35576,731.865913 567.13886,722.919201 428,669 L545.994804,146.666878 C978.128518,146.666878 1025.01382,329.724632 686.650699,695.840138 Z" id="Rectangle-Copy-3" stroke="#D1A4CF" stroke-width="3"></path>
                <path d="M336.075218,199.459999 C431.042479,97.3249983 646.829042,97.6077951 741.796304,199.742795 C836.763565,301.877796 876.989872,460.143399 743.31474,535.808193 C695.893123,562.650484 655.257112,608 569.138977,608 C532.092069,608 456.339435,608 341.881077,608 C274.698997,403.729999 272.76371,267.549999 336.075218,199.459999 Z" id="Rectangle" stroke="#FF7AB1" stroke-width="3"></path>
                <path d="M348.770467,93.9438373 C755.066141,-20.0721749 780.699608,424.904077 645.637121,551.654234 C609.938771,585.155553 494.555577,631.615256 409.675811,654.358721 C376.508687,663.245825 299.044507,650.518103 177.283272,616.175555 L64.6626246,198.641464 C224.796946,137.057143 319.49956,102.157934 348.770467,93.9438373 Z" id="Rectangle-Copy-2" stroke="#FC97B6" stroke-width="4" transform="translate(391.844494, 366.268593) rotate(-345.000000) translate(-391.844494, -366.268593) "></path>
                <path d="M571.504979,557.600227 C554.155697,590.578601 517.116037,595.300037 460.385999,571.764535 L360.328678,182.330476 C677.426672,97.3643251 747.818772,222.454242 571.504979,557.600227 Z" id="Rectangle-Copy" stroke="#FFAC81" stroke-width="3" transform="translate(513.169277, 371.510547) rotate(-345.000000) translate(-513.169277, -371.510547) "></path>
                <path d="M469.173234,476.785676 C503.205035,476.785676 597,436.99672 597,370.681794 C597,304.366867 597,185 469.173234,185 C341.346468,185 379.627102,362.392428 403.698377,422.904798 C427.769651,483.417168 435.141433,476.785676 469.173234,476.785676 Z" id="Oval" stroke="#FFFC87" stroke-width="3"></path>
            </g>
        </g>
    </g>
</svg>