
<svg width="1440px" height="1024px" viewBox="0 0 1440 1024" version="1.1" xmlns="http://www.w3.org/2000/svg" xmlns:xlink="http://www.w3.org/1999/xlink">
    <g id="Page-1" stroke="none" stroke-width="1" fill="none" fill-rule="evenodd" opacity="0.3">
        <g id="bacBack" fill="#FFFFFF">
            <g id="back" transform="translate(-1823.000000, -1150.000000)">
                <rect id="Rectangle" x="1706" y="486" width="1410" height="2520"></rect>
                <path d="M1661.40578,312 L3115.67399,312 C3163.35491,1658.81356 3099.78035,2431.01695 2924.95029,2628.61017 C2750.12023,2826.20339 2327.80347,2925 1658,2925 L1661.40578,312 Z" id="Rectangle" stroke="#7FD488" stroke-width="3"></path>
                <path d="M1434.78284,828.202922 C1860.99027,369.753652 2829.42756,371.023031 3255.63499,829.472301 C3681.84242,1287.92157 3862.3757,1998.32202 3262.44964,2337.95554 C3049.62424,2458.44145 2867.25223,2662 2480.75916,2662 C2314.49483,2662 1974.52151,2662 1460.83919,2662 C1159.33001,1745.10146 1150.64456,1133.83577 1434.78284,828.202922 Z" id="Rectangle-Copy-5" stroke="#90F2C3" stroke-width="3"></path>
                <path d="M1886.61557,240.189263 C3780.89723,217.869525 3375.03321,2176.3555 2642.09529,2568.882 C2448.37255,2672.63063 1894.05872,2740 1499.57177,2740 C1345.42434,2740 1024.3073,2594.86538 536.220654,2304.59615 L533,364.028745 C1298.93996,283.07708 1750.14515,241.797252 1886.61557,240.189263 Z" id="Rectangle-Copy-4" stroke="#B1C4FF" stroke-width="3"></path>
                <path d="M2337.89963,2369.28768 C2224.50538,2491.97859 1930.87218,2461.50929 1457,2277.87977 L1858.86081,499 C3330.60022,499 3490.27982,1122.42923 2337.89963,2369.28768 Z" id="Rectangle-Copy-3" stroke="#D1A4CF" stroke-width="3"></path>
                <path d="M1143.94638,677.436944 C1467.43412,329.54618 2202.46961,330.509438 2525.95735,678.400202 C2849.44509,1026.29097 2986.46828,1565.37298 2531.12962,1823.10131 C2369.59698,1914.53113 2231.17821,2069 1937.83332,2069 C1811.64014,2069 1553.60335,2069 1163.72293,2069 C934.88007,1373.21847 928.287889,909.36412 1143.94638,677.436944 Z" id="Rectangle" stroke="#FF7AB1" stroke-width="3"></path>
                <path d="M1186.78882,318.617162 C2570.82691,-69.7726989 2658.07227,1445.7511 2197.96996,1877.46701 C2076.36037,1991.57378 1683.30751,2149.82817 1394.16646,2227.30328 C1281.18338,2257.57701 1017.30888,2214.2409 602.542964,2097.29497 L218.977016,675.249738 C764.474125,465.475599 1087.07806,346.598074 1186.78882,318.617162 Z" id="Rectangle-Copy-2" stroke="#FC97B6" stroke-width="4" transform="translate(1333.488239, 1246.104946) rotate(-345.000000) translate(-1333.488239, -1246.104946) "></path>
                <path d="M1945.44756,1897.75208 C1886.34294,2010.07475 1760.16902,2026.16142 1566.92578,1946.01209 L1226.15134,619.669637 C2306.33865,330.234318 2546.10406,756.261799 1945.44756,1897.75208 Z" id="Rectangle-Copy" stroke="#FFAC81" stroke-width="3" transform="translate(1746.784766, 1263.964381) rotate(-345.000000) translate(-1746.784766, -1263.964381) "></path>
                <path d="M1596.33355,1622.27042 C1712.32267,1622.27042 2032,1486.82445 2032,1261.08117 C2032,1035.3379 2032,629 1596.33355,629 C1160.66709,629 1291.13733,1232.86326 1373.17841,1438.854 C1455.2195,1644.84474 1480.34442,1622.27042 1596.33355,1622.27042 Z" id="Oval" stroke="#FFFC87" stroke-width="3"></path>
            </g>
        </g>
    </g>
</svg>