
<svg  xmlns="http://www.w3.org/2000/svg">
  <defs>


    <symbol id="stop" viewBox="0 0 103 103" stroke="none" stroke-width="1" fill="none" fill-rule="evenodd">
     <g class="shape" transform="translate(-145.000000, -60.000000)" stroke="var(--color-i)" stroke-width="3">
            <g id="=" transform="translate(147.000000, 62.000000)">
                <circle id="Oval-Copy" cx="49" cy="49" r="49"></circle>
                <g id="====" transform="translate(39.000000, 23.000000)">
                    <path d="M-23.3771777,26.4732143 L26.4486063,26.4732143" id="==" transform="translate(1.535714, 26.473214) rotate(90.000000) translate(-1.535714, -26.473214) "></path>
                    <path d="M-7.3771777,26.4732143 L42.4486063,26.4732143" id="=" transform="translate(17.535714, 26.473214) rotate(90.000000) translate(-17.535714, -26.473214) "></path>
                </g>
            </g>
        </g>
    </symbol>

     <symbol id="remove" viewBox="0 0 103 103" stroke="none" stroke-width="1" fill="none" fill-rule="evenodd">
      <g id="shape" transform="translate(-145.000000, -186.000000)" stroke="var(--color-i)" stroke-width="3">
            <g id="Delete" transform="translate(147.000000, 188.000000)">
                <circle id="Oval-Copy-2" cx="49" cy="49" r="49"></circle>
                <g id="cestino" transform="translate(23.000000, 22.000000)">
                    <polygon id="Path-4" points="5.89285714 7.85714286 10.8035714 55 40.2678571 55 45.1785714 7.85714286"></polygon>
                    <path d="M0.6228223,7.36607143 L50.4486063,7.36607143" id="Path-3"></path>
                    <polyline id="Path-5" points="19.6428571 7.85714286 19.6428571 0 30.4464286 0 30.4464286 7.85714286"></polyline>
                </g>
            </g>
        </g>
    </symbol>

   <symbol id="prev" viewBox="0 0 103 103" stroke="none" stroke-width="1" fill="none" fill-rule="evenodd">
        <g id="shape" transform="translate(-46.000000, -464.000000)" stroke-width="3">
            <g id="previous-" transform="translate(48.000000, 465.000000)">
                <g id="previous" transform="translate(49.065000, 49.780000) scale(-1, 1) translate(-49.065000, -49.780000) translate(0.065000, 0.780000)">
                    <polyline id="Path-7" stroke="#383B3A" points="39 36 59.2923964 49.4496115 39 62.663265"></polyline>
                    <circle id="Oval-&gt;-Copy" stroke="var(--color-i)" cx="49" cy="49" r="49"></circle>
                </g>
            </g>
         </g>
    </symbol>

    <symbol id="play" viewBox="0 0 103 103" stroke="none" stroke-width="1" fill="none" fill-rule="evenodd">
     <g id="shape" transform="translate(-27.000000, -60.000000)" stroke="var(--color-i)" stroke-width="3">
            <g id="&gt;" transform="translate(29.000000, 62.000000)">
                <circle id="Oval" cx="49" cy="49" r="49"></circle>
                <polygon id="Path-7-Copy" points="39 29 69.8230088 49.4292035 39 69.5"></polygon>
            </g>
        </g>
    </symbol>


    
    <symbol id="next" viewBox="0 0 103 103" stroke="none" stroke-width="1" fill="none" fill-rule="evenodd">
     <g id="Page-1" stroke="none" stroke-width="1" fill="none" fill-rule="evenodd">
        <g id="shape" transform="translate(-116.000000, -510.000000)" stroke="var(--color-i)" stroke-width="3">
            <g id="next" transform="translate(118.000000, 512.000000)">
                <circle id="Oval-&gt;" cx="49" cy="49" r="49"></circle>
                <polyline id="Path-7" points="39 36 59.2923964 49.4496115 39 62.663265"></polyline>
            </g>
        </g>
    </g>
    </symbol>

    
    <symbol id="check" viewBox="0 0 103 103" stroke="none" stroke-width="1" fill="none" fill-rule="evenodd">
          <g id="shape" transform="translate(-21.000000, -318.000000)" stroke="var(--color-i)" stroke-width="3">
            <g id="V-Copy" transform="translate(23.000000, 320.000000)">
                <circle id="Oval-Copy" cx="49" cy="49" r="49"></circle>
                <polyline id="Path" points="27 48 45.2647059 69 71.5 30"></polyline>
            </g>
        </g>
    </symbol>





 <symbol id="add" viewBox="0 0 102 102">
    <g id="Page-1" stroke="none" stroke-width="1" fill="none" fill-rule="evenodd">
        <g id="SE" transform="translate(-183.000000, -206.000000)" stroke="var(--color-i)" stroke-width="3">
            <circle id="Oval-&gt;" cx="234" cy="257" r="49"></circle>
            <path d="M208.5,257.5 L259.5,257.5" id="Line-2" stroke-linecap="square"></path>
            <path d="M234.5,232.5 L234.5,282.5" id="Line-3" stroke-linecap="square"></path>
        </g>
    </g>
  </symbol>


    <symbol id="exit" viewBox="0 0 103 103" stroke="none" stroke-width="1" fill="none" fill-rule="evenodd">
        <g id="shape" transform="translate(-21.000000, -192.000000)" stroke="var(--color-i)" stroke-width="3">
            <g id="exit3" transform="translate(23.000000, 194.000000)">
                <circle id="Oval" cx="49" cy="49" r="49"></circle>
                <g id="icon" transform="translate(24.000000, 21.000000)">
                    <path d="M13.75,7.09677419 C5.76612903,11.0887097 0,21.2903226 0,30.1612903 C0,39.0322581 7.54032258,55 24.3951613,55 C41.25,55 50.5645161,40.8064516 50.5645161,31.0483871 C50.5645161,21.2903226 44.7983871,11.5322581 35.9274194,7.09677419" id="Path-6"></path>
                    <path d="M24.3951613,0.443548387 L24.3951613,19.9596774" id="Line" stroke-linecap="square"></path>
                </g>
            </g>
        </g>
    </symbol>

    <symbol id="close" viewBox="0 0 103 103" stroke="none" stroke-width="1" fill="none" fill-rule="evenodd">
        <g id="shape" transform="translate(-263.000000, -60.000000)" stroke="var(--color-i)" stroke-width="3">
            <g id="X" transform="translate(265.000000, 62.000000)">
                <circle id="Oval-Copy-2" cx="49" cy="49" r="49"></circle>
                <g id="Group" transform="translate(29.000000, 29.000000)">
                    <path d="M0,0 L41,41" id="Path-2"></path>
                    <g id="Path-2-Copy-2" transform="translate(20.500000, 20.500000) rotate(90.000000) translate(-20.500000, -20.500000) ">
                        <path d="M0,0 L41,41" id="Path-2-Copy"></path>
                    </g>
                </g>
            </g>
        </g>
    </symbol>


     <symbol id="sound" viewBox="0 0 103 103" stroke="none" stroke-width="1" fill="none" fill-rule="evenodd">
        <g id="Wrap" transform="translate(-13.000000, -499.000000)" stroke="var(--color-i)" stroke-width="3">
            <g id="sound" transform="translate(15.000000, 501.000000)">
                <circle id="Oval-&gt;" cx="49" cy="49" r="49"></circle>
                <g id="specker" transform="translate(21.000000, 29.000000)">
                    <polygon id="Path-8" points="14 14 0 14 0 29.5 14 29.5 28 41 28 2"></polygon>
                    <path d="M36.5,12 L36.5,27.5" id="Path-9"></path>
                    <path d="M46.5,6 L46.5,34" id="Path-10"></path>
                    <path d="M55.5,0 L55.5,39" id="Path-11"></path>
                </g>
            </g>
        </g>
    </symbol>



     <symbol id="text" viewBox="0 0 103 103" stroke="none" stroke-width="1" fill="none" fill-rule="evenodd">
        <g id="Wrap" transform="translate(-130.000000, -499.000000)" stroke="var(--color-i)" stroke-width="3">
            <g id="text" transform="translate(132.000000, 501.000000)">
                <circle id="Oval-" cx="49" cy="49" r="49"></circle>
                <g id="lines" transform="translate(30.000000, 26.000000)">
                    <path d="M9.5,9.5 L27.5,9.5" id="Line" stroke-linecap="square"></path>
                    <path d="M9.5,16.5 L27.5,16.5" id="Line-1" stroke-linecap="square"></path>
                    <path d="M9.5,23.5 L27.5,23.5" id="Line-2" stroke-linecap="square"></path>
                    <path d="M9.5,30.5 L27.5,30.5" id="Line-3" stroke-linecap="square"></path>
                    <path d="M9.5,37.5 L27.5,37.5" id="Line-4" stroke-linecap="square"></path>
                    <rect id="Rectangle" x="0" y="0" width="37.245283" height="47"></rect>
                </g>
            </g>
        </g>
    </symbol>


<symbol id="lat-nav" viewBox="0 0 102 102" >
       
    <g id="Page-1" stroke="none" stroke-width="1" fill="none" fill-rule="evenodd">
        <g id="Mobile" transform="translate(-286.000000, -525.000000)" stroke="#383B3A" stroke-width="3">
            <g id="foglia-copy" transform="translate(288.000000, 527.000000)">
                <g id="ball">
                    <circle id="Oval" cx="49" cy="49" r="49"></circle>
                </g>
                <path d="M59.0289855,43 C67.2222222,44.5567704 73.8792271,51.3027755 79,63.2380152 C77.4637681,64.7947856 72.3429952,67.9083264 63.6376812,72.5786376 C50.5797101,79.5841044 31.3768116,77.2489488 26,72.5786376 C36.7536232,69.4650968 49.0434783,60.9028596 49.0434783,60.9028596 L49.0434783,60.9028596 L63.6376812,60.9028596 C63.6376812,60.9028596 59.7971014,59.6055509 52.115942,57.0109336 C55.1884058,52.3406224 57.4927536,47.6703112 59.0289855,43 Z M58,22 C56.4477612,35.8110117 53.3432836,46.0413908 48.6865672,52.6911372 C41.7014925,62.6657568 20.7462687,70.338541 22.2985075,68.8039842 C23.0327297,68.0781257 27.4757354,60.3800365 33.9402985,51.1565803 C35.70477,48.6390822 38.2918347,44.5469306 41.7014925,38.8801254 C37.6188287,41.9691655 34.2556446,45.0382792 31.6119403,48.0874666 C28.968236,51.136654 24.8289325,55.996084 19.1940299,62.6657568 C18.159204,47.8317071 21.2636816,38.112847 28.5074627,33.5091764 C35.7512438,28.9055059 45.5820896,25.0691137 58,22 Z" id="Path-20"></path>
            </g>
        </g>
    </g>

</symbol>



  </defs>  
</svg>
