
<svg width="252px" height="35px" viewBox="0 0 252 35" version="1.1" xmlns="http://www.w3.org/2000/svg" xmlns:xlink="http://www.w3.org/1999/xlink">
    <defs>
        <linearGradient x1="50%" y1="50.5367345%" x2="75.497653%" y2="49.6967461%" id="linearGradient-1">
            <stop stop-color="#8A843C" offset="0%"></stop>
            <stop stop-color="#FF9824" offset="27.1774704%"></stop>
            <stop stop-color="#FFE600" offset="44.6816934%"></stop>
            <stop stop-color="#FB1275" offset="73.009924%"></stop>
            <stop stop-color="#0D75C1" offset="100%"></stop>
        </linearGradient>
    </defs>
    <g id="Page-1" stroke="none" stroke-width="1" fill="none" fill-rule="evenodd">
        <g id="logo-ZZZZ-Copy-5" transform="translate(-5.000000, -7.000000)" fill="url(#linearGradient-1)" fill-rule="nonzero">
            <path d="M20.856,10.384 C24.4680181,10.384 27.477988,11.2726578 29.886,13.05 C32.294012,14.8273422 33.8849961,17.2496513 34.659,20.317 L29.499,20.317 C28.8396634,18.6829918 27.7575075,17.3786715 26.2525,16.404 C24.7474925,15.4293285 22.9630103,14.942 20.899,14.942 C19.0069905,14.942 17.3085075,15.3863289 15.8035,16.275 C14.2984925,17.1636711 13.1231709,18.4249918 12.2775,20.059 C11.4318291,21.6930082 11.009,23.6136556 11.009,25.821 C11.009,28.1430116 11.4389957,30.135325 12.299,31.798 C13.1590043,33.460675 14.3701589,34.7291623 15.9325,35.6035 C17.4948411,36.4778377 19.3079897,36.915 21.372,36.915 C23.8946793,36.915 26.058991,36.1338411 27.865,34.5715 C29.671009,33.0091589 30.7603315,30.866347 31.133,28.143 L19.996,28.143 L19.996,24.531 L35.261,24.531 L35.261,29.218 C34.9169983,31.4540112 34.1215062,33.4821576 32.8745,35.3025 C31.6274938,37.1228424 29.9791769,38.5776612 27.9295,39.667 C25.8798231,40.7563388 23.5363465,41.301 20.899,41.301 C17.9463186,41.301 15.337678,40.6416733 13.073,39.323 C10.808322,38.0043267 9.05967283,36.176845 7.827,33.8405 C6.59432717,31.504155 5.978,28.831015 5.978,25.821 C5.978,22.8109849 6.59432717,20.137845 7.827,17.8015 C9.05967283,15.465155 10.8011554,13.6448399 13.0515,12.3405 C15.3018446,11.0361601 17.9033186,10.384 20.856,10.384 Z M60.1224138,17.307 L60.1224138,41 L55.1774138,41 L55.1774138,35.84 C54.5754108,37.5886754 53.5290879,38.9431619 52.0384138,39.9035 C50.5477397,40.8638381 48.8134237,41.344 46.8354138,41.344 C44.0834,41.344 41.8760888,40.4553422 40.2134138,38.678 C38.5507388,36.9006578 37.7194138,34.3636831 37.7194138,31.067 L37.7194138,17.307 L42.6214138,17.307 L42.6214138,30.551 C42.6214138,32.7010108 43.166075,34.3564942 44.2554138,35.5175 C45.3447526,36.6785058 46.8354043,37.259 48.7274138,37.259 C50.6767569,37.259 52.2390746,36.6283396 53.4144138,35.367 C54.589753,34.1056604 55.1774138,32.271012 55.1774138,29.863 L55.1774138,17.307 L60.1224138,17.307 Z M63.3978276,10.427 C63.3978276,9.59566251 63.6844914,8.90766939 64.2578276,8.363 C64.8311638,7.81833061 65.5908229,7.546 66.5368276,7.546 C67.4828323,7.546 68.249658,7.81833061 68.8373276,8.363 C69.4249972,8.90766939 69.7188276,9.59566251 69.7188276,10.427 C69.7188276,11.2583375 69.4249972,11.9319974 68.8373276,12.448 C68.249658,12.9640026 67.4828323,13.222 66.5368276,13.222 C65.5908229,13.222 64.8311638,12.9640026 64.2578276,12.448 C63.6844914,11.9319974 63.3978276,11.2583375 63.3978276,10.427 Z M68.9878276,17.307 L68.9878276,41 L64.0858276,41 L64.0858276,17.307 L68.9878276,17.307 Z M82.4972414,17.006 C84.6472521,17.006 86.4819004,17.536328 88.0012414,18.597 C89.5205823,19.657672 90.5812384,21.0623246 91.1832414,22.811 L91.1832414,9.18 L96.1282414,9.18 L96.1282414,41 L91.1832414,41 L91.1832414,35.496 C90.5812384,37.2446754 89.5205823,38.649328 88.0012414,39.71 C86.4819004,40.770672 84.6472521,41.301 82.4972414,41.301 C80.4332311,41.301 78.5914161,40.8136715 76.9717414,39.839 C75.3520666,38.8643285 74.0835793,37.4596758 73.1662414,35.625 C72.2489035,33.7903242 71.7902414,31.6260125 71.7902414,29.132 C71.7902414,26.6666543 72.2489035,24.5166758 73.1662414,22.682 C74.0835793,20.8473242 75.3520666,19.4426715 76.9717414,18.468 C78.5914161,17.4933285 80.4332311,17.006 82.4972414,17.006 Z M84.0022414,21.306 C81.8235638,21.306 80.0820812,22.0011597 78.7777414,23.3915 C77.4734015,24.7818403 76.8212414,26.6953211 76.8212414,29.132 C76.8212414,31.5686788 77.4734015,33.4821597 78.7777414,34.8725 C80.0820812,36.2628403 81.8235638,36.958 84.0022414,36.958 C85.3782483,36.958 86.6109026,36.6355032 87.7002414,35.9905 C88.7895802,35.3454968 89.6495716,34.4353392 90.2802414,33.26 C90.9109112,32.0846608 91.2262414,30.7086745 91.2262414,29.132 C91.2262414,27.5839923 90.9109112,26.2151726 90.2802414,25.0255 C89.6495716,23.8358274 88.7895802,22.9185032 87.7002414,22.2735 C86.6109026,21.6284968 85.3782483,21.306 84.0022414,21.306 Z M122.107655,28.014 C122.107655,28.8166707 122.050322,29.518997 121.935655,30.121 L103.703655,30.121 C103.789656,32.5576789 104.463316,34.3636608 105.724655,35.539 C106.985995,36.7143392 108.548313,37.302 110.411655,37.302 C112.045663,37.302 113.428816,36.8863375 114.561155,36.055 C115.693494,35.2236625 116.388654,34.1200069 116.646655,32.744 L121.892655,32.744 C121.57732,34.406675 120.917994,35.8829935 119.914655,37.173 C118.911317,38.4630065 117.606997,39.4734963 116.001655,40.2045 C114.396314,40.9355037 112.604665,41.301 110.626655,41.301 C108.33331,41.301 106.305164,40.8136715 104.542155,39.839 C102.779146,38.8643285 101.395994,37.4596758 100.392655,35.625 C99.3893168,33.7903242 98.8876552,31.6260125 98.8876552,29.132 C98.8876552,26.6666543 99.3893168,24.5166758 100.392655,22.682 C101.395994,20.8473242 102.779146,19.4426715 104.542155,18.468 C106.305164,17.4933285 108.33331,17.006 110.626655,17.006 C112.948667,17.006 114.976813,17.4861619 116.711155,18.4465 C118.445497,19.4068381 119.778484,20.7254916 120.710155,22.4025 C121.641826,24.0795084 122.107655,25.9499897 122.107655,28.014 Z M117.162655,27.885 C117.219989,26.3369923 116.954825,25.0398386 116.367155,23.9935 C115.779486,22.9471614 114.976827,22.1731692 113.959155,21.6715 C112.941483,21.1698308 111.830661,20.919 110.626655,20.919 C108.705979,20.919 107.100662,21.5066608 105.810655,22.682 C104.520649,23.8573392 103.818322,25.5916552 103.703655,27.885 L117.162655,27.885 Z M134.413069,17.006 C136.56308,17.006 138.397728,17.536328 139.917069,18.597 C141.43641,19.657672 142.497066,21.0623246 143.099069,22.811 L143.099069,9.18 L148.044069,9.18 L148.044069,41 L143.099069,41 L143.099069,35.496 C142.497066,37.2446754 141.43641,38.649328 139.917069,39.71 C138.397728,40.770672 136.56308,41.301 134.413069,41.301 C132.349059,41.301 130.507244,40.8136715 128.887569,39.839 C127.267894,38.8643285 125.999407,37.4596758 125.082069,35.625 C124.164731,33.7903242 123.706069,31.6260125 123.706069,29.132 C123.706069,26.6666543 124.164731,24.5166758 125.082069,22.682 C125.999407,20.8473242 127.267894,19.4426715 128.887569,18.468 C130.507244,17.4933285 132.349059,17.006 134.413069,17.006 Z M135.918069,21.306 C133.739391,21.306 131.997909,22.0011597 130.693569,23.3915 C129.389229,24.7818403 128.737069,26.6953211 128.737069,29.132 C128.737069,31.5686788 129.389229,33.4821597 130.693569,34.8725 C131.997909,36.2628403 133.739391,36.958 135.918069,36.958 C137.294076,36.958 138.52673,36.6355032 139.616069,35.9905 C140.705408,35.3454968 141.565399,34.4353392 142.196069,33.26 C142.826739,32.0846608 143.142069,30.7086745 143.142069,29.132 C143.142069,27.5839923 142.826739,26.2151726 142.196069,25.0255 C141.565399,23.8358274 140.705408,22.9185032 139.616069,22.2735 C138.52673,21.6284968 137.294076,21.306 135.918069,21.306 Z M198.583897,10.642 L191.015897,41 L184.995897,41 L178.588897,17.522 L172.181897,41 L166.161897,41 L158.593897,10.642 L163.968897,10.642 L169.214897,35.324 L175.879897,10.642 L181.297897,10.642 L187.962897,35.324 L193.208897,10.642 L198.583897,10.642 Z M210.54531,17.006 C212.695321,17.006 214.529969,17.536328 216.04931,18.597 C217.568651,19.657672 218.643641,21.0623246 219.27431,22.811 L219.27431,17.307 L224.17631,17.307 L224.17631,41 L219.27431,41 L219.27431,35.496 C218.643641,37.2446754 217.568651,38.649328 216.04931,39.71 C214.529969,40.770672 212.695321,41.301 210.54531,41.301 C208.4813,41.301 206.639485,40.8136715 205.01981,39.839 C203.400136,38.8643285 202.131648,37.4596758 201.21431,35.625 C200.296972,33.7903242 199.83831,31.6260125 199.83831,29.132 C199.83831,26.6666543 200.296972,24.5166758 201.21431,22.682 C202.131648,20.8473242 203.400136,19.4426715 205.01981,18.468 C206.639485,17.4933285 208.4813,17.006 210.54531,17.006 Z M212.05031,21.306 C209.871633,21.306 208.13015,22.0011597 206.82581,23.3915 C205.52147,24.7818403 204.86931,26.6953211 204.86931,29.132 C204.86931,31.5686788 205.52147,33.4821597 206.82581,34.8725 C208.13015,36.2628403 209.871633,36.958 212.05031,36.958 C213.426317,36.958 214.658972,36.6355032 215.74831,35.9905 C216.837649,35.3454968 217.697641,34.4353392 218.32831,33.26 C218.95898,32.0846608 219.27431,30.7086745 219.27431,29.132 C219.27431,27.5839923 218.95898,26.2151726 218.32831,25.0255 C217.697641,23.8358274 216.837649,22.9185032 215.74831,22.2735 C214.658972,21.6284968 213.426317,21.306 212.05031,21.306 Z M233.041724,9.18 L233.041724,41 L228.139724,41 L228.139724,9.18 L233.041724,9.18 Z M250.464138,41 L241.950138,30.465 L241.950138,41 L237.048138,41 L237.048138,9.18 L241.950138,9.18 L241.950138,27.412 L250.378138,17.307 L256.269138,17.307 L245.949138,29.089 L256.527138,41 L250.464138,41 Z" id="GuidedWalk-Copy"></path>
        </g>
    </g>
</svg>